<svg width="117" height="87" viewBox="0 0 117 87" fill="none" xmlns="http://www.w3.org/2000/svg">
<path d="M62.8356 65.738L44.8085 60.7311V56.3956L48.6073 57.5354L50.6141 57.5942C55.1342 57.5942 58.8112 53.9171 58.8112 49.397C58.8112 48.5629 59.0088 47.7294 59.3814 46.9835L61.0784 43.5874C62.932 43.5006 64.4123 41.9649 64.4123 40.0909C64.4123 39.3394 64.1648 38.5942 63.7122 37.9905L63.1898 37.2944C61.2685 34.7339 60.2115 31.5607 60.2115 28.3581C60.2115 26.8895 59.8402 25.479 59.1503 24.2291L59.6139 23.7656C62.7084 20.671 64.4123 16.5571 64.4123 12.1799C64.4123 8.658 63.2486 5.16554 61.1359 2.34791L59.3698 0L58.468 0.225629C51.1487 2.05527 43.5566 2.98377 35.9017 2.98377H35.1325C22.7099 2.98377 12.6024 13.0913 12.6024 25.5145C12.6024 29.3345 13.5829 33.1175 15.4993 36.5567L20.388 43.8226C21.8135 45.9387 22.9451 48.2422 23.7526 50.666C24.7159 53.5561 25.2048 56.5652 25.2048 59.6105V60.7311L7.17774 65.738C2.95164 66.9134 0 70.7962 0 75.183V86.9998H70.0134V75.183C70.0134 70.7962 67.0617 66.9134 62.8356 65.738ZM43.6503 63.3156L44.6643 63.5973L42.5905 71.8936L37.3423 67.5212L43.6503 63.3156ZM60.9492 38.975L61.4702 39.6697C61.5625 39.7927 61.6118 39.9384 61.6118 40.0909C61.6118 40.4778 61.2979 40.791 60.9116 40.791H59.3459L56.8776 45.7302C56.3102 46.8611 56.0107 48.1301 56.0107 49.397C56.0107 52.3726 53.5896 54.7937 50.6141 54.7937H49.2151L35.4087 50.6517L34.6046 53.3346L42.008 55.5553V61.0463L35.0067 65.7134L28.0053 61.0463V59.6105C28.0053 58.282 27.8959 56.9617 27.7284 55.651L28.2446 55.1342C31.7022 51.6766 33.6064 47.0799 33.6064 42.1913V40.791H30.8059C29.2613 40.791 28.0053 39.535 28.0053 37.9905C28.0053 36.4459 29.2613 35.1899 30.8059 35.1899H33.6064V31.9723C33.6064 29.8493 34.3359 27.7674 35.6624 26.1094C37.4544 23.8715 40.125 22.5875 42.9912 22.5875H51.6403C53.1821 22.5875 54.6316 23.1885 55.7208 24.2777C56.8106 25.3675 57.411 26.8177 57.411 28.3581C57.411 32.1631 58.667 35.9324 60.9492 38.975ZM26.363 63.3156L32.6711 67.5212L27.4228 71.8936L25.3491 63.5973L26.363 63.3156ZM22.7113 42.2603L17.8855 35.0949C16.2617 32.1726 15.4029 28.8593 15.4029 25.5145C15.4029 14.6358 24.2544 5.78431 35.1325 5.78431H35.9017C43.491 5.78431 51.0215 4.8982 58.2471 3.16291L58.8953 4.0285C60.647 6.36547 61.6118 9.25968 61.6118 12.1799C61.6118 15.8077 60.1992 19.2188 57.6338 21.7855L57.3973 22.0221C55.8158 20.5828 53.7913 19.787 51.6403 19.787H42.9912C39.269 19.787 35.8018 21.4532 33.4765 24.3604C31.7542 26.5128 30.8059 29.2149 30.8059 31.9723V32.3894C27.7168 32.3894 25.2048 34.9014 25.2048 37.9905C25.2048 41.0583 27.6847 43.558 30.7443 43.5915C30.4599 46.7886 29.1998 49.7806 27.1151 52.227C26.9134 51.4038 26.6796 50.5874 26.4102 49.7806C25.5227 47.1161 24.2763 44.5857 22.7113 42.2603ZM67.2128 84.1993H2.80053V75.183C2.80053 72.0509 4.90914 69.2756 7.92847 68.4367L22.6497 64.348L25.7887 76.9012L35.0067 69.2196L44.2246 76.9026L47.3643 64.3494L62.0849 68.4381C65.1042 69.2756 67.2128 72.0495 67.2128 75.183V84.1993Z" fill="#E2F2FB"/>
<path d="M102.119 18L96.9907 21.6427C105.212 27.4803 109.738 35.2436 109.738 43.5C109.738 51.7564 105.212 59.521 96.9907 65.3586L102.119 69C111.711 62.1901 116.991 53.135 116.991 43.5C116.991 33.8663 111.711 24.8112 102.119 18Z" fill="#E2F2FB"/>
<path d="M92.8749 25L87.9907 28.6996C93.2088 32.6522 96.0827 37.9091 96.0827 43.4994C96.0827 49.0909 93.2088 54.3465 87.9907 58.3004L92.8749 62C99.395 57.0599 102.991 50.4872 102.991 43.4994C102.991 36.5115 99.395 29.9401 92.8749 25Z" fill="#E2F2FB"/>
</svg>