<svg width="93" height="93" viewBox="0 0 93 93" fill="none" xmlns="http://www.w3.org/2000/svg">
<path d="M77.5494 10.1333H70.4474V1.38228C70.4474 0.618667 69.827 0 69.0612 0H23.939C23.1732 0 22.5528 0.618667 22.5528 1.38228V10.1333H15.4506C6.93114 10.1333 0 17.0446 0 25.5395C0 25.6907 0.00236813 25.8412 0.00655789 25.9918C0.143181 30.6523 2.42788 34.8844 6.27463 37.603C8.88995 39.4512 11.9264 40.4039 15.0161 40.4039C16.5629 40.4039 18.1236 40.1648 19.65 39.6797L23.0209 38.6085C24.6291 46.5942 30.2443 53.1521 37.6789 56.0998V65.2247C37.6789 65.9883 38.2994 66.6069 39.0652 66.6069H39.2288C40.6167 66.6069 41.7457 67.7328 41.7457 69.1165V74.9824C41.7457 77.6692 39.5536 79.8551 36.859 79.8551H32.4614C31.6956 79.8551 31.0751 80.4737 31.0751 81.2373V87.3368V91.6177C31.0751 92.3813 31.6956 93 32.4614 93H62.0586C62.8244 93 63.4449 92.3813 63.4449 91.6177V87.3372V81.2377C63.4449 80.4741 62.8244 79.8554 62.0586 79.8554H58.0202C55.3256 79.8554 53.1335 77.6696 53.1335 74.9827V69.1169C53.1335 67.7331 54.2625 66.6073 55.6504 66.6073C56.4163 66.6073 57.0367 65.9886 57.0367 65.225V55.3393C63.5862 52.1257 68.4595 46.016 69.9621 38.6957L73.4715 39.7658C74.9472 40.2157 76.4526 40.4373 77.9451 40.4373C81.0745 40.4373 84.1487 39.4637 86.7818 37.5796C90.5934 34.8522 92.8574 30.6287 92.9933 25.9916C92.9974 25.8414 93 25.6908 93 25.5397C93 17.0446 86.0689 10.1333 77.5494 10.1333ZM18.8084 37.0459C15.07 38.2336 11.0861 37.6146 7.87821 35.3476C4.74791 33.1355 2.88912 29.696 2.77818 25.9117C2.77453 25.788 2.77271 25.6641 2.77271 25.5395C2.77271 18.5689 8.46004 12.8979 15.4508 12.8979H22.5528V16.1564H15.6091C10.4203 16.1564 6.19885 20.3657 6.19885 25.5395C6.19885 25.6687 6.2014 25.7969 6.20668 25.9248C6.32381 28.7771 7.76618 31.3395 10.1635 32.9552C11.71 33.9974 13.5269 34.5351 15.3542 34.5351C16.3918 34.5351 17.4329 34.3618 18.4293 34.0089L22.5529 32.5485V33.9004C22.5529 34.5505 22.5801 35.1944 22.6315 35.8316L18.8084 37.0459ZM22.5528 18.9211V29.6146L17.5012 31.4038C15.5477 32.0953 13.4393 31.8265 11.7159 30.6647C10.0558 29.5462 9.05736 27.7772 8.97684 25.8113C8.9732 25.7212 8.97156 25.6309 8.97156 25.5395C8.97156 21.89 11.949 18.9209 15.6092 18.9209H22.5528V18.9211ZM60.6725 90.2353H33.848V88.7193H60.6725V90.2353ZM58.0204 82.6198H60.6725V85.9547H33.848V82.6198H36.8594C41.0828 82.6198 44.5186 79.1937 44.5186 74.9826V69.1167C44.5186 68.2085 44.2849 67.3542 43.8778 66.6071H50.9996C50.5929 67.3539 50.361 68.2087 50.361 69.1167V74.9826C50.361 79.1937 53.7969 82.6198 58.0204 82.6198ZM54.2644 63.8426H40.4518V57.0065C42.3846 57.5099 44.4113 57.7785 46.5002 57.7785C49.2166 57.7785 51.8285 57.3242 54.2644 56.4894V63.8426ZM67.6749 33.9003C67.6749 45.5423 58.176 55.0141 46.5002 55.0141C34.8244 55.0141 25.3253 45.5425 25.3253 33.9001V8.93416H67.6749V33.9003ZM67.6749 6.16959H25.3253V2.76457H67.6749V6.16959ZM70.4472 18.9211H77.3911C81.0512 18.9211 84.0288 21.89 84.0288 25.5397C84.0288 25.6307 84.027 25.721 84.0233 25.812C83.9432 27.7679 82.9542 29.5347 81.3102 30.66C79.6031 31.8283 77.5028 32.1189 75.5487 31.4581L70.4474 29.7325V18.9211H70.4472ZM90.222 25.9113C90.1116 29.6787 88.2687 33.113 85.1657 35.3336C81.9853 37.6092 78.0183 38.2614 74.2825 37.1222L70.3605 35.9263C70.417 35.2582 70.4476 34.5827 70.4476 33.9003V32.6513L74.6581 34.0757C75.6411 34.4081 76.6494 34.572 77.6502 34.572C79.4895 34.5718 81.3024 34.018 82.879 32.939C85.2506 31.3161 86.6775 28.7593 86.7937 25.9252C86.799 25.7971 86.8017 25.6687 86.8017 25.5394C86.8017 20.3655 82.5802 16.1562 77.3915 16.1562H70.4474V12.8977H77.5494C84.5401 12.8977 90.2275 18.5687 90.2275 25.5394C90.2275 25.6641 90.2255 25.788 90.222 25.9113Z" fill="black"/>
<path d="M51.1091 11.7334H40.6851C39.9193 11.7334 39.2988 12.239 39.2988 12.863V18.009C39.2988 18.6331 39.9193 19.1386 40.6851 19.1386H43.4075V32.331C43.4075 32.955 44.028 33.4606 44.7938 33.4606H51.1091C51.8749 33.4606 52.4953 32.955 52.4953 32.331V12.863C52.4953 12.2393 51.8747 11.7334 51.1091 11.7334ZM49.7228 31.2014H46.1801V18.009C46.1801 17.385 45.5596 16.8794 44.7938 16.8794H42.0714V13.9926H49.7228V31.2014Z" fill="black"/>
</svg>
